<svg xmlns="http://www.w3.org/2000/svg" height="2048" preserveAspectRatio="none" style="display: block;" version="1.1" viewBox="0 0 2048 2048" width="2048">
<path d="M 0 0 L 2048 0 L 2048 2048 L 0 2048 L 0 0 z" fill="rgb(255,255,255)" transform="translate(0,0)"></path>
<path d="M 1024.11 526.449 C 1038.57 508.027 1059.32 491.86 1081.08 483.07 C 1115.24 469.066 1153.61 469.415 1187.51 484.039 C 1261.47 515.891 1287.88 602.37 1256.62 674.262 C 1266.82 680.02 1276.22 687.088 1284.58 695.286 C 1311 721.391 1325.59 756.528 1325.1 793.458 C 1323.96 878.51 1258.59 935.869 1175.81 935.025 L 1175.9 881.346 C 1177.96 881.368 1180.03 881.377 1182.09 881.375 C 1205.93 881.333 1228.51 874.671 1245.53 857.308 C 1262.53 839.966 1271.25 816.68 1270.98 792.492 C 1270.79 776.175 1266.45 761.222 1257.77 747.401 C 1227.49 699.192 1186.76 720.458 1174.69 708.542 C 1172.35 701.258 1184.99 687.12 1189.41 681 C 1195.52 672.562 1200.91 663.621 1205.51 654.274 C 1221.98 620.419 1219.82 580.126 1192.4 552.546 C 1176.61 536.55 1155.11 527.489 1132.64 527.361 C 1110.5 527.452 1089.3 536.333 1073.71 552.051 C 1045.88 580.235 1049.8 606.699 1049.94 642.588 L 1049.87 721.716 L 1049.65 953.352 C 1049.69 979.666 1049.04 1005.46 1049.38 1031.81 C 1060.05 1023.6 1084.52 998.573 1095.18 988.188 L 1169.64 988.153 C 1151 1007.13 1132.03 1025.5 1113.28 1044.35 C 1083.99 1073.46 1051.78 1103.7 1023.3 1133.01 C 976.481 1084.5 927.196 1036.5 879.66 988.32 C 904.161 988.081 928.664 987.99 953.166 988.046 C 967.039 1000.21 985.964 1019.76 999.094 1032.9 L 998.436 735.678 L 998.126 654.178 C 998.089 612.395 1002.82 575.684 966.997 545.911 C 950.422 532.01 928.908 525.445 907.396 527.723 C 885.035 530.115 863.507 541.425 849.573 559.195 C 841.818 569.156 836.334 580.691 833.504 592.993 C 824.03 633.762 846.597 658.193 866.687 691.069 C 869.145 695.09 874.147 701.758 874.418 706.493 C 874.643 710.426 870.627 712.206 867.5 712.006 C 843.828 710.237 819.169 714.694 801.2 731.438 C 767.847 762.518 770.385 823.957 801.073 856.036 C 821.728 877.626 844.587 880.873 872.846 881.681 L 872.835 934.317 C 803.367 936.446 739.616 894.486 726.642 824.349 C 714.751 760.067 736.104 708.918 791.116 674.03 C 784.633 659.868 780.513 644.74 778.919 629.247 C 770.146 550.973 824.741 481.832 903.173 473.396 C 952.569 469.841 993.653 487.296 1024.11 526.449 z" fill="rgb(242,85,40)" transform="translate(0,0)"></path>
<path d="M 476.189 1259.37 C 504.403 1257.07 524.253 1266.21 543.514 1286.17 L 543.379 1264.1 L 606.007 1263.6 L 606.014 1409.32 C 606.014 1464.96 615.712 1538.69 552.18 1566.16 C 522.558 1578.97 478.563 1579.09 448.346 1567.84 C 424.066 1558.8 407.629 1540.38 397.4 1517.02 C 394.2 1508.23 393.353 1501.81 392.411 1492.67 L 456.729 1493.2 C 464.837 1507.7 475.068 1517.36 492.861 1517.31 C 506.722 1517.27 520.689 1513.85 530.776 1503.69 C 546.448 1487.91 544.262 1467.88 544.11 1447.53 C 510.708 1483.45 464.237 1483.54 425.021 1455.46 C 376.946 1421.04 374.772 1339.57 409.971 1295.53 C 427.67 1273.38 448.013 1262.78 476.189 1259.37 z" fill="rgb(12,11,12)" transform="translate(0,0)"></path>
<path d="M 490.761 1319.28 C 555.078 1316.5 562.604 1406.83 502.256 1416.69 C 494.154 1418.09 480.253 1415.04 473.104 1410.77 C 448.939 1396.37 445.184 1358.71 460.306 1336.61 C 467.69 1325.82 478.121 1321.33 490.761 1319.28 z" fill="rgb(255,255,255)" transform="translate(0,0)"></path>
<path d="M 727.577 1260.37 C 734.326 1259.85 741.105 1259.84 747.855 1260.34 C 818.118 1266.06 850.002 1324.89 844.075 1390.34 C 796.34 1391.94 742.687 1390.6 694.401 1390.8 C 701.094 1436.12 750.427 1444.44 778.408 1411.85 C 788.635 1411.87 835.782 1411.42 842.168 1412.51 L 842.686 1414.43 C 802.785 1521.45 640.988 1508.73 627.781 1393.46 C 619.665 1322.63 654.487 1268.85 727.577 1260.37 z" fill="rgb(12,11,12)" transform="translate(0,0)"></path>
<path d="M 728.227 1315.23 C 749.081 1313.13 772.179 1318.34 778.926 1341 L 780.545 1346.56 C 768.35 1346.52 756.636 1346.36 744.399 1346.52 L 694.738 1346.49 C 700.758 1329.04 710 1319.68 728.227 1315.23 z" fill="rgb(255,255,255)" transform="translate(0,0)"></path>
<path d="M 985.517 1260.33 C 1076.64 1253.86 1073.92 1344.33 1073.96 1409.26 L 1073.95 1487.84 L 1007.86 1487.99 L 1007.89 1408.24 C 1007.86 1388.52 1007.92 1372.18 1005.73 1352.45 C 1002.17 1320.22 966.121 1310.45 942.357 1328.32 C 927.283 1346.56 929.908 1389.41 929.921 1412.46 L 929.978 1488.03 L 863.969 1487.96 L 864.012 1263.75 C 885.665 1263.86 907.319 1263.82 928.972 1263.62 L 928.994 1285.93 C 947.458 1269.18 960.895 1263.45 985.517 1260.33 z" fill="rgb(12,11,12)" transform="translate(0,0)"></path>
<path d="M 1320.55 1262.44 C 1375.51 1258.42 1424.23 1287.57 1438.6 1342.06 C 1415.38 1341.82 1392.17 1341.81 1368.95 1342.02 C 1357.77 1325.24 1343.52 1318.41 1323.42 1319.99 C 1292.33 1322.43 1281.46 1354.5 1284.1 1381.2 C 1287.05 1410.86 1306.64 1430.53 1337.13 1426.08 C 1353.58 1423.77 1360.56 1415.67 1370.05 1403.4 C 1386.26 1402.48 1404.06 1402.47 1420.4 1402.17 L 1440.31 1402.19 C 1435.54 1416.4 1431.48 1426.52 1422.35 1438.67 C 1403.86 1463.72 1376.04 1480.26 1345.19 1484.53 C 1285.92 1492.84 1231.17 1453 1223.87 1393.12 C 1220.05 1361.44 1223.61 1329.09 1243.78 1303.22 C 1264 1277.3 1288.82 1266.59 1320.55 1262.44 z" fill="rgb(242,85,40)" transform="translate(0,0)"></path>
<path d="M 1592.68 1263.54 C 1616.09 1263.82 1639.51 1263.89 1662.92 1263.77 C 1656.61 1278 1647.57 1305.1 1641.95 1320.27 C 1633.9 1340.12 1626.33 1362.16 1618.85 1382.36 C 1605.72 1417.38 1592.81 1452.47 1580.11 1487.65 C 1557.57 1487.9 1534.25 1487.52 1511.65 1487.43 C 1502.86 1466.83 1493.31 1437.21 1485.37 1415.34 L 1430.95 1264.1 C 1453.85 1263.49 1477.54 1263.9 1500.5 1264.01 L 1527.99 1352.83 C 1533.85 1372.16 1539.64 1393.2 1546.05 1412.21 C 1562.11 1362.82 1577.65 1313.26 1592.68 1263.54 z" fill="rgb(242,85,40)" transform="translate(0,0)"></path>
<path d="M 1098.7 1335.75 C 1132.51 1336.31 1167.32 1335.93 1201.2 1335.96 L 1201.09 1393.05 L 1098.68 1392.71 C 1098.44 1373.72 1098.45 1354.73 1098.7 1335.75 z" fill="rgb(12,11,12)" transform="translate(0,0)"></path>
<path d="M 906.863 577.507 C 925.613 573.179 944.333 584.825 948.736 603.558 C 953.139 622.29 941.566 641.056 922.852 645.533 C 904.032 650.036 885.136 638.384 880.709 619.546 C 876.282 600.708 888.008 581.86 906.863 577.507 z" fill="rgb(242,85,40)" transform="translate(0,0)"></path>
<path d="M 1125.64 577.54 C 1144.45 573.354 1163.1 585.199 1167.3 604.007 C 1171.51 622.814 1159.68 641.472 1140.88 645.696 C 1122.05 649.926 1103.36 638.079 1099.15 619.245 C 1094.93 600.41 1106.8 581.732 1125.64 577.54 z" fill="rgb(242,85,40)" transform="translate(0,0)"></path>
<metadata><recraft-signature>{"signed_by": "recraft", "signature_b64": "GexEw76KNEFUD420PU7d0jqmAQBWaxrxT+ah+tqQpEMk2Qgax7Ot2poUgmwdAcz1/EG3s43Xh6u8t7idaYdSDQ==", "signing_algo": "Ed25519", "generation_timestamp": 1782933872, "identifier": "8b26bfe4-3045-4a35-8530-3eae65ff7b1b"}</recraft-signature></metadata></svg>